<svg width="1970" height="688" viewBox="0 0 1970 688" fill="none" xmlns="http://www.w3.org/2000/svg">
<path d="M64.7996 687.6C28.7996 687.6 -0.000389203 658.8 -0.000389203 621.9C-0.000389203 612 1.79961 603 6.29961 594.9C1.79961 585.9 -0.000389203 576 -0.000389203 566.1C-0.000389203 556.2 1.79961 547.2 6.29961 539.1C1.79961 530.1 -0.000389203 520.2 -0.000389203 510.3C-0.000389203 500.4 1.79961 491.4 6.29961 483.3C1.79961 474.3 -0.000389203 464.4 -0.000389203 454.5C-0.000389203 444.6 1.79961 435.6 6.29961 427.5C1.79961 418.5 -0.000389203 408.6 -0.000389203 398.7C-0.000389203 388.8 1.79961 379.8 6.29961 371.7C1.79961 362.7 -0.000389203 352.8 -0.000389203 342.9C-0.000389203 333 1.79961 324 6.29961 315.9C1.79961 306.9 -0.000389203 297 -0.000389203 287.1C-0.000389203 277.2 1.79961 268.2 6.29961 260.1C1.79961 251.1 -0.000389203 241.2 -0.000389203 231.3C-0.000389203 221.4 1.79961 212.4 6.29961 204.3C1.79961 195.3 -0.000389203 185.4 -0.000389203 175.5C-0.000389203 140.4 28.7996 111.6 64.7996 111.6C100.8 111.6 129.6 140.4 129.6 176.4C129.6 186.3 127.8 196.2 123.3 204.3C127.8 212.4 129.6 222.3 129.6 232.2C129.6 235.8 129.6 240.3 128.7 243.9C138.6 233.1 152.1 225.9 167.4 224.1C171 195.3 194.4 171.9 223.2 168.3C227.7 136.8 254.7 111.6 288 111.6C297.9 111.6 307.8 113.4 315.9 117.9C324 113.4 333.9 111.6 343.8 111.6C377.1 111.6 404.1 135.9 407.7 168.3C440.1 171.9 464.4 198.9 464.4 232.2C464.4 242.1 462.6 252 458.1 260.1C462.6 268.2 464.4 278.1 464.4 288C464.4 297.9 462.6 307.8 458.1 315.9C462.6 324 464.4 333.9 464.4 343.8C464.4 353.7 462.6 363.6 458.1 371.7C462.6 379.8 464.4 389.7 464.4 399.6C464.4 409.5 462.6 419.4 458.1 427.5C462.6 435.6 464.4 445.5 464.4 455.4C464.4 465.3 462.6 475.2 458.1 483.3C462.6 491.4 464.4 501.3 464.4 511.2C464.4 521.1 462.6 531 458.1 539.1C462.6 547.2 464.4 557.1 464.4 567C464.4 576.9 462.6 586.8 458.1 594.9C462.6 603 464.4 612.9 464.4 622.8C464.4 658.8 435.6 687.6 399.6 687.6C363.6 687.6 334.8 658.8 334.8 621.9C334.8 612 336.6 603 341.1 594.9C336.6 585.9 334.8 576 334.8 566.1C334.8 556.2 336.6 547.2 341.1 539.1C336.6 530.1 334.8 520.2 334.8 510.3C334.8 500.4 336.6 491.4 341.1 483.3C336.6 474.3 334.8 464.4 334.8 454.5C334.8 444.6 336.6 435.6 341.1 427.5C336.6 418.5 334.8 408.6 334.8 398.7C334.8 388.8 336.6 379.8 341.1 371.7C336.6 362.7 334.8 352.8 334.8 342.9C334.8 333 336.6 324 341.1 315.9C338.4 309.6 336.6 303.3 335.7 296.1C328.5 295.2 322.2 293.4 315.9 290.7C309.6 293.4 303.3 295.2 296.1 296.1C292.5 325.8 270 348.3 240.3 351.9C236.7 381.6 214.2 404.1 184.5 407.7C180.9 437.4 158.4 459.9 128.7 463.5C127.8 470.7 126 477 123.3 483.3C127.8 491.4 129.6 501.3 129.6 511.2C129.6 521.1 127.8 531 123.3 539.1C127.8 547.2 129.6 557.1 129.6 567C129.6 576.9 127.8 586.8 123.3 594.9C127.8 603 129.6 612.9 129.6 622.8C129.6 658.8 100.8 687.6 64.7996 687.6ZM734.055 687.6C724.155 687.6 714.255 685.8 706.155 681.3C698.055 685.8 688.155 687.6 678.255 687.6C644.955 687.6 618.855 663.3 614.355 630.9C584.655 627.3 562.155 604.8 558.555 575.1C526.155 571.5 501.855 544.5 501.855 510.3C501.855 500.4 503.655 491.4 508.155 483.3C503.655 474.3 501.855 464.4 501.855 454.5C501.855 444.6 503.655 435.6 508.155 427.5C503.655 418.5 501.855 408.6 501.855 398.7C501.855 388.8 503.655 379.8 508.155 371.7C503.655 362.7 501.855 352.8 501.855 342.9C501.855 333 503.655 324 508.155 315.9C503.655 306.9 501.855 297 501.855 287.1C501.855 254.7 526.155 227.7 557.655 224.1C561.255 195.3 584.655 171.9 613.455 168.3C617.955 136.8 644.955 111.6 678.255 111.6C688.155 111.6 698.055 113.4 706.155 117.9C714.255 113.4 724.155 111.6 734.055 111.6C743.955 111.6 753.855 113.4 761.955 117.9C770.055 113.4 779.955 111.6 789.855 111.6C823.155 111.6 850.155 135.9 853.755 168.3C883.455 171.9 905.955 194.4 909.555 224.1C941.955 227.7 966.255 254.7 966.255 288C966.255 297.9 964.455 307.8 959.955 315.9C964.455 324 966.255 333.9 966.255 343.8C966.255 353.7 964.455 363.6 959.955 371.7C964.455 379.8 966.255 389.7 966.255 399.6C966.255 435.6 937.455 464.4 901.455 464.4C891.555 464.4 881.655 462.6 873.555 458.1C865.455 462.6 855.555 464.4 845.655 464.4C835.755 464.4 825.855 462.6 817.755 458.1C809.655 462.6 799.755 464.4 789.855 464.4C779.955 464.4 770.055 462.6 761.955 458.1C753.855 462.6 743.955 464.4 734.055 464.4C724.155 464.4 714.255 462.6 706.155 458.1C698.055 462.6 688.155 464.4 678.255 464.4C668.355 464.4 658.455 462.6 650.355 458.1C644.055 460.8 637.755 462.6 630.555 463.5C629.655 470.7 627.855 477 625.155 483.3C627.855 489.6 629.655 495.9 630.555 503.1C637.755 504 644.055 505.8 650.355 508.5C658.455 504 668.355 502.2 678.255 502.2C688.155 502.2 698.055 504 706.155 508.5C714.255 504 724.155 502.2 734.055 502.2C743.955 502.2 753.855 504 761.955 508.5C770.055 504 779.955 502.2 789.855 502.2C799.755 502.2 809.655 504 817.755 508.5C825.855 504 835.755 502.2 845.655 502.2C881.655 502.2 910.455 531 910.455 567C910.455 600.3 886.155 627.3 853.755 630.9C850.155 663.3 823.155 687.6 789.855 687.6C779.955 687.6 770.055 685.8 761.955 681.3C753.855 685.8 743.955 687.6 734.055 687.6ZM734.055 297C724.155 297 714.255 295.2 706.155 290.7C698.055 295.2 688.155 297 678.255 297C668.355 297 658.455 295.2 650.355 290.7C644.055 293.4 637.755 295.2 630.555 296.1C629.655 303.3 627.855 309.6 625.155 315.9C627.855 322.2 629.655 328.5 630.555 335.7C637.755 336.6 644.055 338.4 650.355 341.1C658.455 336.6 668.355 334.8 678.255 334.8C688.155 334.8 698.055 336.6 706.155 341.1C714.255 336.6 724.155 334.8 734.055 334.8C743.955 334.8 753.855 336.6 761.955 341.1C770.055 336.6 779.955 334.8 789.855 334.8C799.755 334.8 809.655 336.6 817.755 341.1C824.055 338.4 830.355 336.6 836.655 335.7C837.555 328.5 840.255 321.3 842.955 315.9C840.255 309.6 838.455 303.3 837.555 296.1C830.355 295.2 824.055 293.4 817.755 290.7C809.655 295.2 799.755 297 789.855 297C779.955 297 770.055 295.2 761.955 290.7C753.855 295.2 743.955 297 734.055 297ZM1235.91 687.6C1226.01 687.6 1216.11 685.8 1208.01 681.3C1199.91 685.8 1190.01 687.6 1180.11 687.6C1146.81 687.6 1120.71 663.3 1116.21 630.9C1086.51 627.3 1064.01 604.8 1060.41 575.1C1028.01 571.5 1003.71 544.5 1003.71 510.3C1003.71 500.4 1005.51 491.4 1010.01 483.3C1005.51 474.3 1003.71 464.4 1003.71 454.5C1003.71 444.6 1005.51 435.6 1010.01 427.5C1005.51 418.5 1003.71 408.6 1003.71 398.7C1003.71 388.8 1005.51 379.8 1010.01 371.7C1005.51 362.7 1003.71 352.8 1003.71 342.9C1003.71 333 1005.51 324 1010.01 315.9C1005.51 306.9 1003.71 297 1003.71 287.1C1003.71 254.7 1028.01 227.7 1059.51 224.1C1063.11 195.3 1086.51 171.9 1115.31 168.3C1119.81 136.8 1146.81 111.6 1180.11 111.6C1190.01 111.6 1199.91 113.4 1208.01 117.9C1216.11 113.4 1226.01 111.6 1235.91 111.6C1245.81 111.6 1255.71 113.4 1263.81 117.9C1271.91 113.4 1281.81 111.6 1291.71 111.6C1325.01 111.6 1352.01 135.9 1355.61 168.3C1385.31 171.9 1407.81 194.4 1411.41 224.1C1443.81 227.7 1468.11 254.7 1468.11 288C1468.11 297.9 1466.31 307.8 1461.81 315.9C1466.31 324 1468.11 333.9 1468.11 343.8C1468.11 353.7 1466.31 363.6 1461.81 371.7C1466.31 379.8 1468.11 389.7 1468.11 399.6C1468.11 435.6 1439.31 464.4 1403.31 464.4C1393.41 464.4 1383.51 462.6 1375.41 458.1C1367.31 462.6 1357.41 464.4 1347.51 464.4C1337.61 464.4 1327.71 462.6 1319.61 458.1C1311.51 462.6 1301.61 464.4 1291.71 464.4C1281.81 464.4 1271.91 462.6 1263.81 458.1C1255.71 462.6 1245.81 464.4 1235.91 464.4C1226.01 464.4 1216.11 462.6 1208.01 458.1C1199.91 462.6 1190.01 464.4 1180.11 464.4C1170.21 464.4 1160.31 462.6 1152.21 458.1C1145.91 460.8 1139.61 462.6 1132.41 463.5C1131.51 470.7 1129.71 477 1127.01 483.3C1129.71 489.6 1131.51 495.9 1132.41 503.1C1139.61 504 1145.91 505.8 1152.21 508.5C1160.31 504 1170.21 502.2 1180.11 502.2C1190.01 502.2 1199.91 504 1208.01 508.5C1216.11 504 1226.01 502.2 1235.91 502.2C1245.81 502.2 1255.71 504 1263.81 508.5C1271.91 504 1281.81 502.2 1291.71 502.2C1301.61 502.2 1311.51 504 1319.61 508.5C1327.71 504 1337.61 502.2 1347.51 502.2C1383.51 502.2 1412.31 531 1412.31 567C1412.31 600.3 1388.01 627.3 1355.61 630.9C1352.01 663.3 1325.01 687.6 1291.71 687.6C1281.81 687.6 1271.91 685.8 1263.81 681.3C1255.71 685.8 1245.81 687.6 1235.91 687.6ZM1235.91 297C1226.01 297 1216.11 295.2 1208.01 290.7C1199.91 295.2 1190.01 297 1180.11 297C1170.21 297 1160.31 295.2 1152.21 290.7C1145.91 293.4 1139.61 295.2 1132.41 296.1C1131.51 303.3 1129.71 309.6 1127.01 315.9C1129.71 322.2 1131.51 328.5 1132.41 335.7C1139.61 336.6 1145.91 338.4 1152.21 341.1C1160.31 336.6 1170.21 334.8 1180.11 334.8C1190.01 334.8 1199.91 336.6 1208.01 341.1C1216.11 336.6 1226.01 334.8 1235.91 334.8C1245.81 334.8 1255.71 336.6 1263.81 341.1C1271.91 336.6 1281.81 334.8 1291.71 334.8C1301.61 334.8 1311.51 336.6 1319.61 341.1C1325.91 338.4 1332.21 336.6 1338.51 335.7C1339.41 328.5 1342.11 321.3 1344.81 315.9C1342.11 309.6 1340.31 303.3 1339.41 296.1C1332.21 295.2 1325.91 293.4 1319.61 290.7C1311.51 295.2 1301.61 297 1291.71 297C1281.81 297 1271.91 295.2 1263.81 290.7C1255.71 295.2 1245.81 297 1235.91 297ZM1681.97 687.6C1648.67 687.6 1622.57 663.3 1618.07 630.9C1588.37 627.3 1565.87 604.8 1562.27 575.1C1529.87 571.5 1505.57 544.5 1505.57 510.3C1505.57 500.4 1507.37 491.4 1511.87 483.3C1507.37 474.3 1505.57 464.4 1505.57 454.5C1505.57 444.6 1507.37 435.6 1511.87 427.5C1507.37 418.5 1505.57 408.6 1505.57 398.7C1505.57 388.8 1507.37 379.8 1511.87 371.7C1507.37 362.7 1505.57 352.8 1505.57 342.9C1505.57 333 1507.37 324 1511.87 315.9C1507.37 306.9 1505.57 297 1505.57 287.1C1505.57 254.7 1529.87 227.7 1561.37 224.1C1564.97 195.3 1588.37 171.9 1617.17 168.3C1621.67 136.8 1648.67 111.6 1681.97 111.6C1691.87 111.6 1701.77 113.4 1709.87 117.9C1717.97 113.4 1727.87 111.6 1737.77 111.6C1771.07 111.6 1798.07 135.9 1801.67 168.3C1817.87 170.1 1831.37 177.3 1841.27 188.1C1840.37 184.5 1840.37 180 1840.37 175.5C1840.37 165.6 1842.17 156.6 1846.67 148.5C1842.17 139.5 1840.37 129.6 1840.37 119.7C1840.37 109.8 1842.17 100.8 1846.67 92.6999C1842.17 83.6999 1840.37 73.7999 1840.37 63.8999C1840.37 28.7999 1869.17 -9.34601e-05 1905.17 -9.34601e-05C1941.17 -9.34601e-05 1969.97 28.7999 1969.97 64.7999C1969.97 74.6999 1968.17 84.5999 1963.67 92.6999C1968.17 100.8 1969.97 110.7 1969.97 120.6C1969.97 130.5 1968.17 140.4 1963.67 148.5C1968.17 156.6 1969.97 166.5 1969.97 176.4C1969.97 186.3 1968.17 196.2 1963.67 204.3C1968.17 212.4 1969.97 222.3 1969.97 232.2C1969.97 242.1 1968.17 252 1963.67 260.1C1968.17 268.2 1969.97 278.1 1969.97 288C1969.97 297.9 1968.17 307.8 1963.67 315.9C1968.17 324 1969.97 333.9 1969.97 343.8C1969.97 353.7 1968.17 363.6 1963.67 371.7C1968.17 379.8 1969.97 389.7 1969.97 399.6C1969.97 409.5 1968.17 419.4 1963.67 427.5C1968.17 435.6 1969.97 445.5 1969.97 455.4C1969.97 465.3 1968.17 475.2 1963.67 483.3C1968.17 491.4 1969.97 501.3 1969.97 511.2C1969.97 521.1 1968.17 531 1963.67 539.1C1968.17 547.2 1969.97 557.1 1969.97 567C1969.97 576.9 1968.17 586.8 1963.67 594.9C1968.17 603 1969.97 612.9 1969.97 622.8C1969.97 658.8 1941.17 687.6 1905.17 687.6C1869.17 687.6 1840.37 658.8 1840.37 621.9C1840.37 618.3 1840.37 614.7 1841.27 611.1C1831.37 621.9 1817.87 629.1 1801.67 630.9C1798.07 663.3 1771.07 687.6 1737.77 687.6C1727.87 687.6 1717.97 685.8 1709.87 681.3C1701.77 685.8 1691.87 687.6 1681.97 687.6ZM1737.77 297C1727.87 297 1717.97 295.2 1709.87 290.7C1701.77 295.2 1691.87 297 1681.97 297C1672.07 297 1662.17 295.2 1654.07 290.7C1647.77 293.4 1641.47 295.2 1634.27 296.1C1633.37 303.3 1631.57 309.6 1628.87 315.9C1633.37 324 1635.17 333.9 1635.17 343.8C1635.17 353.7 1633.37 363.6 1628.87 371.7C1633.37 379.8 1635.17 389.7 1635.17 399.6C1635.17 409.5 1633.37 419.4 1628.87 427.5C1633.37 435.6 1635.17 445.5 1635.17 455.4C1635.17 465.3 1633.37 475.2 1628.87 483.3C1631.57 489.6 1633.37 495.9 1634.27 503.1C1641.47 504 1647.77 505.8 1654.07 508.5C1662.17 504 1672.07 502.2 1681.97 502.2C1691.87 502.2 1701.77 504 1709.87 508.5C1716.17 505.8 1722.47 504 1728.77 503.1C1732.37 474.3 1755.77 450.9 1784.57 447.3C1788.17 418.5 1811.57 395.1 1840.37 391.5C1841.27 384.3 1843.97 377.1 1846.67 371.7C1843.97 365.4 1842.17 359.1 1841.27 351.9C1811.57 348.3 1789.07 325.8 1785.47 296.1C1778.27 295.2 1771.97 293.4 1765.67 290.7C1757.57 295.2 1747.67 297 1737.77 297Z" fill="black"/>
</svg>
